<mxfile>
    <diagram id="_aAut9FGOpw1Qjv1Djvd" name="Page-1">
        <mxGraphModel dx="1495" dy="1175" grid="1" gridSize="10" guides="1" tooltips="1" connect="1" arrows="1" fold="1" page="1" pageScale="1" pageWidth="850" pageHeight="1100" math="0" shadow="0">
            <root>
                <mxCell id="0"/>
                <mxCell id="1" parent="0"/>
                <mxCell id="239" value="" style="rounded=1;whiteSpace=wrap;html=1;dashed=1;" parent="1" vertex="1">
                    <mxGeometry x="67.19" y="55" width="570" height="149" as="geometry"/>
                </mxCell>
                <mxCell id="240" value="" style="rounded=1;whiteSpace=wrap;html=1;" parent="1" vertex="1">
                    <mxGeometry x="77.19" y="85" width="400" height="109" as="geometry"/>
                </mxCell>
                <mxCell id="242" value="&lt;span style=&quot;color: rgb(240 , 240 , 240) ; font-family: &amp;#34;helvetica&amp;#34; ; font-style: normal ; font-weight: 400 ; letter-spacing: normal ; text-align: center ; text-indent: 0px ; text-transform: none ; word-spacing: 0px ; background-color: rgb(42 , 42 , 42) ; display: inline ; float: none&quot;&gt;&lt;font style=&quot;font-size: 14px&quot;&gt;Generator builder&lt;/font&gt;&lt;/span&gt;" style="text;html=1;strokeColor=none;fillColor=none;align=center;verticalAlign=middle;whiteSpace=wrap;rounded=0;" parent="1" vertex="1">
                    <mxGeometry x="116.56" y="54" width="110.63" height="30" as="geometry"/>
                </mxCell>
                <mxCell id="243" value="Evalaution" style="rounded=1;whiteSpace=wrap;html=1;" parent="1" vertex="1">
                    <mxGeometry x="346.80999999999995" y="120" width="120" height="60" as="geometry"/>
                </mxCell>
                <mxCell id="244" value="Generator" style="rounded=1;whiteSpace=wrap;html=1;" parent="1" vertex="1">
                    <mxGeometry x="216.81" y="120" width="120" height="60" as="geometry"/>
                </mxCell>
                <mxCell id="258" value="" style="endArrow=classic;html=1;entryX=0;entryY=0.5;entryDx=0;entryDy=0;exitX=1;exitY=0.5;exitDx=0;exitDy=0;" parent="1" source="244" target="243" edge="1">
                    <mxGeometry width="50" height="50" relative="1" as="geometry">
                        <mxPoint x="476.80999999999995" y="160" as="sourcePoint"/>
                        <mxPoint x="487.44000000000005" y="160" as="targetPoint"/>
                    </mxGeometry>
                </mxCell>
                <mxCell id="259" value="" style="rounded=1;whiteSpace=wrap;html=1;" parent="1" vertex="1">
                    <mxGeometry x="486.1199999999999" y="86" width="140" height="108" as="geometry"/>
                </mxCell>
                <mxCell id="260" value="HyperParameter tuning" style="rounded=1;whiteSpace=wrap;html=1;" parent="1" vertex="1">
                    <mxGeometry x="496.1199999999999" y="121" width="120" height="60" as="geometry"/>
                </mxCell>
                <mxCell id="261" value="" style="endArrow=classic;html=1;entryX=0;entryY=0.5;entryDx=0;entryDy=0;exitX=1;exitY=0.5;exitDx=0;exitDy=0;" parent="1" source="243" target="260" edge="1">
                    <mxGeometry width="50" height="50" relative="1" as="geometry">
                        <mxPoint x="469.19000000000005" y="151" as="sourcePoint"/>
                        <mxPoint x="363" y="161" as="targetPoint"/>
                    </mxGeometry>
                </mxCell>
                <mxCell id="262" value="&lt;font face=&quot;helvetica&quot;&gt;&lt;span style=&quot;font-size: 14px&quot;&gt;MLflow&lt;/span&gt;&lt;/font&gt;" style="text;html=1;strokeColor=none;fillColor=none;align=center;verticalAlign=middle;whiteSpace=wrap;rounded=0;" parent="1" vertex="1">
                    <mxGeometry x="114.81" y="83" width="54.38" height="30" as="geometry"/>
                </mxCell>
                <mxCell id="263" value="&lt;font face=&quot;helvetica&quot;&gt;&lt;span style=&quot;font-size: 14px&quot;&gt;RayTune&lt;/span&gt;&lt;/font&gt;" style="text;html=1;strokeColor=none;fillColor=none;align=center;verticalAlign=middle;whiteSpace=wrap;rounded=0;" parent="1" vertex="1">
                    <mxGeometry x="486.1199999999999" y="85" width="100" height="30" as="geometry"/>
                </mxCell>
                <mxCell id="264" value="Outliers" style="rounded=1;whiteSpace=wrap;html=1;" parent="1" vertex="1">
                    <mxGeometry x="86.19" y="120" width="120" height="60" as="geometry"/>
                </mxCell>
                <mxCell id="265" value="" style="endArrow=classic;html=1;entryX=0;entryY=0.5;entryDx=0;entryDy=0;exitX=1;exitY=0.5;exitDx=0;exitDy=0;" parent="1" source="264" target="244" edge="1">
                    <mxGeometry width="50" height="50" relative="1" as="geometry">
                        <mxPoint x="356.80999999999995" y="170" as="sourcePoint"/>
                        <mxPoint x="366.80999999999995" y="170" as="targetPoint"/>
                    </mxGeometry>
                </mxCell>
            </root>
        </mxGraphModel>
    </diagram>
</mxfile>